<svg viewBox="0 0 96 96" xmlns="http://www.w3.org/2000/svg" xmlns:xlink="http://www.w3.org/1999/xlink" id="Icons_SolarPanels_M" overflow="hidden"><g id="Icons"><path d="M92.575 73 92.575 63.747 75.728 26.31 32.028 26.31 15.176 63.747 15.176 73 52.876 73 52.876 84 40.262 84 40.262 86 67.489 86 67.489 84 54.876 84 54.876 73ZM62.075 38.781 63.561 50.4 44.191 50.4 45.68 38.781ZM45.939 36.781 47.025 28.31 60.729 28.31 61.815 36.781ZM84.374 50.4 65.574 50.4 64.088 38.781 79.147 38.781ZM42.174 50.4 23.374 50.4 28.601 38.785 43.664 38.785ZM41.917 52.4 40.563 62.962 17.723 62.962 22.478 52.4ZM43.933 52.4 63.817 52.4 65.172 62.966 42.579 62.966ZM67.188 62.962 65.833 52.4 85.274 52.4 90.029 62.966ZM78.247 36.781 63.831 36.781 62.745 28.31 74.435 28.31ZM33.317 28.31 45.006 28.31 43.92 36.781 29.505 36.781ZM17.176 64.962 90.576 64.962 90.576 71 17.176 71Z"/><rect x="16" y="6" width="2" height="5"/><rect x="16" y="27" width="2" height="5"/><rect x="25" y="18" width="5" height="2"/><rect x="4" y="18" width="5" height="2"/><rect x="21.925" y="10.575" width="5" height="2" transform="matrix(0.707107 -0.707107 0.707107 0.707107 -1.031 20.661)"/><rect x="7.076" y="25.425" width="5" height="2" transform="matrix(0.707107 -0.707107 0.707107 0.707107 -15.881 14.511)"/><rect x="8.576" y="9.075" width="2" height="5" transform="matrix(0.707057 -0.707156 0.707156 0.707057 -5.38 10.162)"/><rect x="23.425" y="23.925" width="2" height="5" transform="matrix(0.707057 -0.707156 0.707156 0.707057 -11.531 25.013)"/><path d="M23 19C23 15.6863 20.3137 13 17 13 13.6863 13 11 15.6863 11 19 11 22.3137 13.6863 25 17 25 20.3123 24.9967 22.9967 22.3123 23 19ZM13 19C13 16.7909 14.7909 15 17 15 19.2091 15 21 16.7909 21 19 21 21.2091 19.2091 23 17 23 14.7909 23 13 21.2091 13 19Z"/></g></svg>