<svg viewBox="0 0 96 96" xmlns="http://www.w3.org/2000/svg" xmlns:xlink="http://www.w3.org/1999/xlink" id="Icons_WindTurbines_M" overflow="hidden"><g id="Icons"><path d="M35.84 40.856 34.219 40.523 33.827 40.208 34.752 91.083 29.79 91.083 30.724 42.55 28.695 44.011 27.79 91.083 19.769 91.083 19.769 93.083 44.771 93.083 44.771 91.083 36.753 91.083 35.84 40.856Z"/><path d="M60.2965 38.191 38.3776 28.3218 35.5363 28.6304 36.1544 25.9304 28.5387 3.0054C28.0492 1.53665 26.4617 0.742811 24.993 1.2323 23.7499 1.64658 22.9597 2.86671 23.09 4.1705L25.5275 28.3345 27.0246 30.4771 24.3834 31.3871 8.4967 49.2671C7.51499 50.3221 7.52142 51.9582 8.5114 53.0054 9.03147 53.6023 9.78227 53.9478 10.5739 53.9546 11.1703 53.9499 11.75 53.7568 12.2301 53.4029L31.8136 39.3 32.862 36.87 35.0944 38.662 58.5807 43.492C60.0968 43.804 61.5788 42.8279 61.8909 41.3118 62.1554 40.0267 61.4929 38.73 60.2965 38.1913ZM33.0485 33.11C32.3056 33.7789 31.1612 33.7189 30.4923 32.9761 29.8234 32.2332 29.8834 31.0887 30.6262 30.4198 31.3682 29.7518 32.5109 29.8106 33.1803 30.5514 33.8506 31.2918 33.7937 32.4354 33.0533 33.1057 33.0517 33.1071 33.0501 33.1086 33.0485 33.11ZM25.08 3.9693C25.0356 3.52821 25.3571 3.13461 25.7982 3.09017 26.1722 3.05248 26.5223 3.27944 26.6406 3.6363L34.08 26.03 33.5446 28.3694C31.894 27.5291 29.878 28.0045 28.7767 29.4937L27.4643 27.616ZM11.0612 51.78C10.7014 52.039 10.1997 51.9573 9.94063 51.5975 9.72116 51.2927 9.74242 50.8764 9.9918 50.5955L25.53 33.108 28.06 32.2356C28.2584 33.9314 29.5766 35.2794 31.2675 35.5156L30.1964 38ZM59.9093 40.9947C59.8006 41.3975 59.3878 41.6375 58.984 41.5328L35.97 36.8 33.7775 35.04C33.9953 34.9116 34.2 34.7621 34.3885 34.5937L34.3885 34.5937C35.4833 33.6001 35.9042 32.0627 35.468 30.65L38.0524 30.3683 59.4752 40.0148C59.8653 40.1646 60.06 40.6023 59.9102 40.9924 59.9099 40.9932 59.9096 40.9939 59.9093 40.9947Z"/><path d="M75.894 36.24 73.844 34.15 74.747 72.083 70.795 72.083 71.783 32.049 70.224 30.459 69.822 30.471 68.795 72.083 63.769 72.083 63.769 74.083 81.769 74.083 81.769 72.083 76.747 72.083 75.894 36.24Z"/><path d="M88.3937 39.4537 78.755 23.9205 77.0812 23.0405 78.4132 21.7905 83.3432 4.0913C83.6938 2.83227 82.9573 1.52743 81.6983 1.17685 80.6315 0.879793 79.5013 1.36233 78.978 2.3383L70.257 18.6158 70.287 20.3384 68.49 19.86 50.8776 24.3941C49.6122 24.7201 48.8506 26.0102 49.1765 27.2756 49.4528 28.3482 50.4361 29.0855 51.5431 29.0503L69.6115 28.4761 69.8878 28.4683 71.3634 27.5201 71.9318 29.3433 84.694 42.358C85.6082 43.2916 87.1062 43.3074 88.0398 42.3932 88.8321 41.6174 88.9793 40.3955 88.394 39.4537ZM80.74 3.2837C80.8353 3.10535 81.057 3.03798 81.2354 3.13324 81.3865 3.21393 81.4614 3.3886 81.4158 3.5537L76.6365 20.7137 75.57 21.7154C74.9085 20.7351 73.7415 20.2237 72.5724 20.4019 72.475 20.4158 72.3842 20.4483 72.2897 20.4708L72.2658 19.1021ZM71.8952 23.6607C71.8071 23.0429 72.2366 22.4706 72.8544 22.3825 72.8547 22.3825 72.8549 22.3824 72.8552 22.3824 72.909 22.3746 72.9634 22.3707 73.0178 22.3707 73.5791 22.3721 74.0543 22.7856 74.133 23.3414 74.2212 23.9594 73.7917 24.5318 73.1737 24.6199 72.5558 24.7081 71.9834 24.2787 71.8952 23.6607ZM69.2712 26.4869 51.4792 27.0523C51.2945 27.0735 51.1275 26.9409 51.1063 26.7562 51.1056 26.7501 51.1051 26.7439 51.1047 26.7378 51.0597 26.5623 51.1655 26.3836 51.3409 26.3386 51.3526 26.3356 51.3643 26.3333 51.3762 26.3316L68.4812 21.9283 70.1119 22.3624C69.6664 23.4553 69.8898 24.707 70.686 25.5782ZM86.61 40.99C86.4807 41.1168 86.2732 41.1147 86.1464 40.9855 86.1379 40.9767 86.1298 40.9675 86.1222 40.9578L73.6974 28.2867 73.1781 26.6197C73.2708 26.615 73.3632 26.6136 73.4567 26.5997L73.4577 26.5997C74.5551 26.4387 75.4848 25.7077 75.9 24.6792L77.3429 25.438 86.6945 40.508C86.8067 40.6508 86.7818 40.8575 86.639 40.9697 86.6297 40.977 86.62 40.9837 86.61 40.99Z"/></g></svg>